<svg xmlns="http://www.w3.org/2000/svg" xmlns:xlink="http://www.w3.org/1999/xlink" viewBox="0,0,256,256" width="48px" height="48px" fill-rule="nonzero"><g fill="none" fill-rule="nonzero" stroke="none" stroke-width="1" stroke-linecap="butt" stroke-linejoin="miter" stroke-miterlimit="10" stroke-dasharray="" stroke-dashoffset="0" font-family="none" font-weight="none" font-size="none" text-anchor="none" style="mix-blend-mode: normal"><g transform="scale(5.33333,5.33333)"><path d="M24,4c-11.04569,0 -20,8.95431 -20,20c0,11.04569 8.95431,20 20,20c11.04569,0 20,-8.95431 20,-20c0,-11.04569 -8.95431,-20 -20,-20z" fill="#ffffff"></path><path d="M43.949,22.994c-0.261,-0.023 -0.52,-0.059 -0.813,-0.111c-3.685,-0.656 -15.05,-16.075 -22.756,-16.791c-4.006,-0.372 -6.162,0.5 -6.328,0.575c-2.203,1.268 -4.141,2.937 -5.713,4.917c0.688,-0.305 1.729,-0.584 4.232,-0.584c7.895,0 21.023,16 30.429,16c0.164,0 0.442,-0.028 0.762,-0.07c0.141,-0.959 0.238,-1.932 0.238,-2.93c0,-0.339 -0.034,-0.67 -0.051,-1.006z" fill="#1e88e5"></path><path d="M38.286,32c-8.421,0 -18.25,-13 -28.571,-13c-3.454,0 -4.869,2.205 -5.637,3.468c-0.039,0.508 -0.078,1.015 -0.078,1.532c0,2.152 0.349,4.22 0.978,6.163c0.745,-1.069 2.31,-2.163 4.736,-2.163c9.342,0 14.828,8 24.762,8c3.579,0 5.325,-1.031 6.935,-2.181c0.001,0 0.001,-0.001 0.001,-0.001c0.975,-1.725 1.704,-3.604 2.132,-5.597c-0.597,1.045 -1.464,3.779 -5.258,3.779zM38.426,37.83c-1.048,0.468 -4.275,2.17 -8.712,2.17c-5.263,0 -8.048,-3 -11.429,-3c-3.66,0 -4.285,4 -4.285,4c0,0.102 0.005,0.204 0.006,0.306c2.943,1.703 6.349,2.694 9.994,2.694c5.675,0 10.786,-2.374 14.426,-6.17z" fill="#1e88e5"></path></g></g></svg>